<?xml version="1.0" encoding="UTF-8" standalone="no"?>
<!-- Generator: Adobe Illustrator 28.2.0, SVG Export Plug-In . SVG Version: 6.00 Build 0)  -->

<svg
   version="1.1"
   id="Calque_1"
   x="0px"
   y="0px"
   viewBox="0 0 385.8 104.4"
   style="enable-background:new 0 0 385.8 104.4;"
   xml:space="preserve"
   sodipodi:docname="zinebshop1.svg"
   inkscape:version="1.3.2 (091e20e, 2023-11-25)"
   xmlns:inkscape="http://www.inkscape.org/namespaces/inkscape"
   xmlns:sodipodi="http://sodipodi.sourceforge.net/DTD/sodipodi-0.dtd"
   xmlns="http://www.w3.org/2000/svg"
   xmlns:svg="http://www.w3.org/2000/svg"><defs
   id="defs109" /><sodipodi:namedview
   id="namedview109"
   pagecolor="#ffffff"
   bordercolor="#000000"
   borderopacity="0.25"
   inkscape:showpageshadow="2"
   inkscape:pageopacity="0.0"
   inkscape:pagecheckerboard="0"
   inkscape:deskcolor="#d1d1d1"
   inkscape:zoom="2.2605364"
   inkscape:cx="193.09577"
   inkscape:cy="51.978814"
   inkscape:window-width="1680"
   inkscape:window-height="1050"
   inkscape:window-x="0"
   inkscape:window-y="0"
   inkscape:window-maximized="0"
   inkscape:current-layer="Calque_1" />
<style
   type="text/css"
   id="style1">
	.st0{fill:none;stroke:#A8A6A7;stroke-width:3;stroke-miterlimit:6.4198;}
	.st1{fill:#918F90;}
	.st2{fill:#C02C58;}
	.st3{fill:#D63465;}
	.st4{fill:#A8A6A7;}
	.st5{fill:#B4547A;}
	.st6{fill:#B9436F;}
	.st7{fill:#A9446A;}
	.st8{fill:#C14774;}
	.st9{fill:#9E335C;}
	.st10{fill:#B23663;}
	.st11{fill:#B23563;}
	.st12{fill:#878586;}
	.st13{fill:none;stroke:#918F90;stroke-width:3;stroke-miterlimit:6.4198;}
</style>
<path
   class="st0"
   d="M360.8,91.6"
   id="path1"
   style="fill:#333333" />
<g
   id="g99">
	<g
   id="g98">
		<path
   class="st1"
   d="M33.9,64.5C43.4,70.2,53.4,74.7,64,78c6.8,2.1,13.7,3.8,20.8,4.3c4.7,0.3,9.4,0.1,14.3,0.1    c0.5,3.5,1.3,7,1.5,10.5c0.2,3.5-3.1,6.4-6.6,6.4c-22,0-44,0-65.9,0c-0.7,0-1.4-0.3-2.2-0.4c0-4.2-0.3-8.3,0.1-12.5    c0.5-5.4,2-10.6,4.3-15.5C31.3,68.7,32.7,66.6,33.9,64.5z"
   id="path2"
   style="fill:#373737;fill-opacity:1" />
		<path
   class="st2"
   d="M97.2,72.2c0,0.2,0.1,0.4,0.1,0.6c0.2,1.2,0.4,2.3,0.6,3.5c0,0.2,0.1,0.4,0.1,0.6c0.1,0.4,0.2,0.9,0.4,1.3    c0,0,0,0,0,0c0.9,0.8,4.1,0.9,5.2,0.1c0.3,0,0.6,0,0.9-0.1c0.1,0,0.2,0,0.3,0c0.3,0,0.7,0.1,1,0.1c0.1,0.1,0.2,0.3,0.3,0.4    c-0.4,0.2-0.7,0.3-1,0.5c-1.7,0.2-3.4,0.4-5.1,0.7c-2.9,0.1-5.8,0.1-8.7,0.2c-7.2-0.3-14.2-1.9-21-3.9c-9.2-2.7-18-6.5-26.4-11.3    c-0.3-0.2-0.5-0.4-0.8-0.5c-0.1-0.1-0.3-0.2-0.4-0.3l0.1,0c0,0-0.1,0-0.1,0c-0.2-0.1-0.4-0.2-0.6-0.4c0,0,0,0,0,0    c-0.1-0.1-0.3-0.1-0.4-0.2c0,0,0,0,0,0c-0.2-0.1-0.4-0.3-0.6-0.4c-0.3-0.2-0.7-0.4-1-0.6c-0.4-0.8-0.8-1.5-1.9-1.2l0.1-0.1    c0,0-0.1,0.1-0.1,0.1c-0.2-0.1-0.4-0.3-0.6-0.4c0,0,0,0,0,0c-0.1-0.2-0.2-0.4-0.3-0.7c0.2-0.5,0.3-1,0.6-1.4    c2.1-2.1,4.1-4.2,6.3-6.3c3.8-3.5,8.3-5.9,13-8c4.5-2,9.2-3.3,14.1-3.9c4.4-0.5,8.9-0.5,13.3,0c2.3,0.3,4.6,0.7,6.9,1l0.1,0l0.1,0    c0,0.2,0.1,0.4,0.1,0.6c-0.1,0.4-0.3,0.8-0.2,1.2c0.8,4.3,1.6,8.7,2.4,13c0.2,1,0.5,2,0.8,3c0,0.2,0.1,0.4,0.1,0.6    c0.1,1.3,0.1,2.6,0.3,3.8c0.2,1.1,0.6,2.1,0.9,3.2c0,0.2,0.1,0.4,0.1,0.6C96.7,69.2,97,70.7,97.2,72.2z"
   id="path3"
   style="fill:#a11919;fill-opacity:1" />
		<path
   class="st3"
   d="M91.6,41.6c-2.3-0.3-4.6-0.7-6.9-1c-4.4-0.5-8.9-0.5-13.3,0c-4.9,0.5-9.6,1.9-14.1,3.9c-4.7,2-9.2,4.5-13,8    c-2.2,2-4.2,4.1-6.3,6.3c-0.3,0.3-0.4,0.9-0.6,1.4c-0.2,0-0.4,0-0.6,0c0,0,0,0,0,0c-0.3-0.2-0.6-0.4-0.9-0.7c0,0,0,0,0,0    c-0.2-0.2-0.5-0.4-0.7-0.6c0,0,0,0,0,0c-0.2-0.1-0.4-0.3-0.6-0.4c0,0,0,0,0,0c-0.4-0.3-0.9-0.6-1.3-1c0,0,0,0,0,0    c-0.1-0.1-0.2-0.2-0.4-0.3c0,0,0,0,0,0c-0.2-0.2-0.5-0.4-0.7-0.6c0,0,0,0,0,0c-0.1-0.1-0.2-0.2-0.3-0.3c0,0,0,0,0,0    c-0.5-0.4-1.1-0.9-1.6-1.3c0,0,0,0,0,0c-0.2-0.1-0.4-0.3-0.6-0.4c0,0,0,0,0,0c-0.2-0.2-0.5-0.4-0.7-0.6c-0.1-0.1-0.2-0.2-0.3-0.3    c-0.1-0.1-0.2-0.2-0.3-0.4c0,0,0,0,0,0c-1.1-1.1-2.1-2.1-3.2-3.2c0,0,0,0,0,0c-0.1-0.1-0.2-0.2-0.3-0.3c0,0,0,0,0,0    c-0.1-0.1-0.2-0.2-0.3-0.3c-0.1,0-0.1-0.1-0.1-0.1c-0.3-0.4-0.6-0.7-0.9-1.1c0,0,0,0,0,0c-0.1-0.1-0.2-0.2-0.3-0.3c0,0,0,0,0,0    c-0.3-0.4-0.6-0.9-1-1.3c0,0,0,0,0,0c-0.1-0.2-0.3-0.4-0.4-0.6c0,0,0,0,0,0c-0.2-0.3-0.4-0.7-0.6-1c0,0,0,0,0,0    c-0.4-0.7-0.8-1.3-1.2-2C20,43.1,20,43.1,20,43c-0.2-0.5-0.5-0.9-0.7-1.4c0,0,0,0,0,0c-0.3-1.4-0.8-2.7-0.9-4.1    c-0.1-2,0.1-4,0.2-6l0-0.1c0,0,0.1-0.1,0.1-0.1c0.2-0.3,0.4-0.7,0.6-1c0,0,0,0,0,0c0.1-0.2,0.3-0.4,0.4-0.6c0,0,0,0,0,0    c0.1-0.1,0.2-0.2,0.3-0.4c0,0,0,0,0,0c0.1-0.1,0.2-0.2,0.3-0.4c0,0,0,0,0,0c0.1-0.1,0.2-0.2,0.3-0.4c0,0,0,0,0,0    c0.1-0.1,0.2-0.2,0.3-0.3c0,0,0,0,0,0c0.1-0.1,0.2-0.2,0.3-0.3c0,0,0,0,0,0c0.2-0.2,0.5-0.4,0.7-0.6c0,0,0,0,0,0    c0.1-0.1,0.2-0.2,0.4-0.3c0,0,0,0,0,0c0.3-0.2,0.6-0.4,1-0.7c0,0,0,0,0,0c0.2-0.1,0.4-0.2,0.6-0.3c0,0,0,0,0,0    c0.4-0.2,0.9-0.4,1.3-0.7c0,0,0.1,0,0.1,0c0.3,0.3,0.6,0.5,0.9,0.8c0,0,0,0,0,0c-0.1,0.1-0.3,0.2-0.4,0.3c0,0,0,0,0,0    c-0.4,0.3-0.9,0.6-1.3,1c0,0,0,0,0,0c-0.2,0.1-0.4,0.3-0.6,0.4c0,0,0,0,0,0c-0.1,0.1-0.2,0.2-0.3,0.3c0,0-0.1-0.1-0.1-0.1    s0.1,0.1,0.1,0.1c-0.1,0.1-0.2,0.2-0.3,0.3c0,0,0,0,0,0c-0.2,0.2-0.3,0.4-0.5,0.5c-0.1,0.1-0.2,0.2-0.3,0.3    c-0.2,0.3-0.4,0.6-0.7,1c0,0,0,0,0,0c-0.1,0.1-0.2,0.3-0.3,0.4c0,0,0,0,0,0c-1.4,2-1.8,4.1-0.7,6.3c0.1,0.1,0.1,0.1,0,0.2    c0.2,0.7,0.4,1.3,0.6,2c0,0,0,0,0,0c0.3,0.6,0.6,1.3,1,1.9c0,0,0,0,0,0c0.1,0.2,0.2,0.4,0.4,0.6c0,0,0,0,0,0    c0.1,0.2,0.3,0.4,0.4,0.6c0,0,0,0,0,0c0.3,0.4,0.6,0.9,0.9,1.3c0,0,0,0,0,0c0.1,0.2,0.3,0.4,0.4,0.6c0,0,0,0,0,0    c0.1,0.1,0.2,0.3,0.3,0.4c0,0,0,0,0,0c0.1,0.1,0.2,0.2,0.3,0.4c0,0,0,0,0,0c0.1,0.2,0.3,0.4,0.4,0.6c0,0,0,0,0,0    c0.1,0.1,0.2,0.2,0.3,0.4c0,0,0,0,0,0c0.4,0.4,0.8,0.9,1.2,1.3c0,0,0,0,0,0c0.1,0.1,0.2,0.2,0.3,0.3c0,0,0,0,0,0    c0.2,0.2,0.3,0.3,0.5,0.5c0,0,0,0,0,0c0.1,0.1,0.2,0.2,0.3,0.3c0,0,0,0,0,0c0,0.1,0,0.2,0,0.2c0.1,0,0.1-0.1,0.2-0.1    c0.2,0,0.4,0,0.5,0c0.1-0.3,0.4-0.5,0.4-0.8c0.3-1.7,0.6-3.3,0.9-5c0-0.7,0-1.5,0.1-2.2c0-0.2,0.1-0.4,0.1-0.6    c0.3-1.2,0.5-2.5,0.8-3.7c0-0.2,0-0.5,0-0.7c0.1-0.9,0.3-1.7,0.4-2.6c0.1-0.2,0.1-0.4,0.2-0.6c0.1-0.2,0.4-0.4,0.4-0.6    c-0.2-1.5,0.8-1.7,2-1.7c1.3,0.1,2.5,0.1,3.8,0c1.1-0.1,1.4,0.4,1.3,1.4c-0.1,1.4-0.2,2.8-0.3,4.2c0,0.3,0,0.5,0,0.8    c0,0.1,0,0.2,0,0.3c-0.1,2-0.2,3.9-0.3,5.8c1.6,0.7,1.5-0.3,1.6-1.2c0.2-6.1,1-12.1,2.9-17.9c2-5.8,4.6-11.3,9.6-15.3    c2-1.6,4.2-2.5,7-2.7c6.3-0.6,10.4,2.6,13.6,7.2c1.8,2.7,3.1,5.8,4.6,8.7c0.1,0.3,0.2,0.5,0.3,0.8c0,0,0,0.1,0,0.1    c0.3,0.9,0.6,1.8,0.9,2.7c0,0.2,0,0.3,0.1,0.5c0.3,1.2,0.6,2.4,0.9,3.7c0.1,0,0.1,0.1,0,0.2c0.1,0.2,0.2,0.4,0.3,0.5    c0.4,0.1,0.9,0.2,1.3,0.3c2.4,0,4.9,0,7.3,0c0.2,0,0.4,0,0.7,0c0.1,0.3,0.2,0.6,0.2,0.9c0.1,0.6,0.2,1.3,0.3,1.9    c0,0.5,0.1,0.9,0.1,1.4c0.1,0.4,0.2,0.8,0.3,1.2c0,0.1,0,0.3,0.1,0.4c0.1,0.6,0.3,1.2,0.4,1.8c0,0.3,0.1,0.6,0.1,0.9    c0,0-0.1,0.1-0.1,0.1c0,0.1,0.1,0.1,0.1,0.2c0,0.2,0,0.3,0.1,0.5C91.5,40.2,91.6,40.9,91.6,41.6z M75.9,30.8    c0.1,0.7,0.3,1.3,0.4,2c0.1,1,0.6,1.3,1.6,0.8c-0.4-1.7-0.7-3.4-1.1-5.1c-1.4-5.5-3.4-10.8-7.2-15.2C64.8,7.5,58.2,7.2,53,12.6    c-4.6,4.8-6.7,10.8-8.1,17.1c0.6,0.1,1.2,0.4,1.7,0.4c9.1,0,18.2,0,27.4,0C74.6,30.2,75.3,30.6,75.9,30.8z"
   id="path4"
   style="fill:#dc2626;fill-opacity:1" />
		<path
   class="st4"
   d="M33.9,64.5c-1.2,2.1-2.6,4.2-3.7,6.4C27.9,75.8,26.4,81,26,86.3c-0.4,4.1-0.1,8.3-0.1,12.5    c-3.4-1.4-5.1-4.3-4.4-7.9c1.4-8.1,2.9-16.1,4.3-24.2c0.2-1.1,0-1.9-1-2.7c-6-5.1-11.7-10.4-15.7-17.3c-2.3-3.9-3.5-8.1-2.4-12.6    c1.4-5.4,5.3-8.4,10.4-10c1.4-0.4,3-0.6,4.5-0.9c0,0.1,0.1,0.3,0.1,0.4c-1.2,0.4-2.5,0.8-3.7,1.3c-6,2.4-9.9,7.5-7.6,14.3    c1.1,3.2,2.7,6.2,4.7,8.9c4.6,6.3,10.9,10.9,17.3,15.2C33,63.8,33.4,64.1,33.9,64.5z"
   id="path5"
   style="fill:#4d4d4d" />
		<path
   class="st5"
   d="M95,59.5c-0.3-1-0.6-2-0.8-3c-0.8-4.3-1.7-8.7-2.4-13c-0.1-0.4,0.1-0.8,0.2-1.2C93,48,94,53.7,95,59.5z"
   id="path6" />
		<path
   class="st6"
   d="M39.1,35.8c0.1-1.4,0.2-2.8,0.3-4.2c0.1-1-0.2-1.5-1.3-1.4c-1.3,0.1-2.5,0.1-3.8,0c-1.2-0.1-2.1,0.1-2,1.7    c0,0.2-0.3,0.4-0.4,0.6c0-0.5,0.1-0.9,0.1-1.4c0-1,0.5-1.3,1.5-1.3c2.2,0.1,4.3,0,6.7,0C39.7,31.9,39.4,33.8,39.1,35.8z"
   id="path7" />
		<path
   class="st7"
   d="M105.2,79.1c0.3-0.1,0.6-0.3,1-0.5c-0.1-0.1-0.2-0.2-0.3-0.4c1.4-0.3,2.8-0.6,4.3-0.9c0,0.2,0.1,0.4,0.1,0.6    C108.6,78.5,107.1,79.4,105.2,79.1z"
   id="path8" />
		<path
   class="st8"
   d="M18.7,31.6c-0.1,2-0.3,4-0.2,6c0.1,1.4,0.6,2.7,0.9,4.1C17.7,38.4,17.1,35.1,18.7,31.6z"
   id="path9" />
		<path
   class="st8"
   d="M26.2,26.4c-0.3-0.3-0.6-0.5-0.9-0.8c1.3-0.5,2.5-1,3.8-1.5c0.1,0.2,0.2,0.4,0.3,0.6    C28.4,25.3,27.3,25.9,26.2,26.4z"
   id="path10" />
		<path
   class="st5"
   d="M96.4,67.1C96,66,95.6,65,95.4,63.9c-0.2-1.3-0.2-2.6-0.3-3.8C95.5,62.4,95.9,64.7,96.4,67.1z"
   id="path11" />
		<path
   class="st5"
   d="M103.6,78.3c-1.1,0.8-4.3,0.7-5.2-0.1C100.1,78.2,101.9,78.3,103.6,78.3z"
   id="path12" />
		<path
   class="st5"
   d="M80.5,29.9c-0.1-0.2-0.2-0.4-0.3-0.5c1.1,0.1,2.2,0.3,3.2,0.3c1.7,0.1,3.4,0,5.1,0c0.4,0,0.9,0.3,1.3,0.5    c-0.2,0-0.4,0-0.7,0c-0.5-0.1-0.9-0.3-1.4-0.3C85.4,29.9,82.9,29.9,80.5,29.9z"
   id="path13" />
		<path
   class="st8"
   d="M30.3,42.9c-0.3,1.7-0.6,3.3-0.9,5c-0.1,0.3-0.3,0.5-0.4,0.8c0.3-1.9,0.7-3.9,1-5.8    C30.1,42.9,30.2,42.9,30.3,42.9z"
   id="path14" />
		<path
   class="st9"
   d="M91.4,80c2.9-0.1,5.8-0.1,8.7-0.2c-1.3,0.2-2.5,0.4-3.8,0.4C94.6,80.2,93,80.1,91.4,80z"
   id="path15" />
		<path
   class="st8"
   d="M21.1,37.2c-1.1-2.3-0.7-4.4,0.7-6.3C21.5,32.9,21.3,35.1,21.1,37.2z"
   id="path16" />
		<path
   class="st8"
   d="M25.2,50.2c1.1,1.1,2.1,2.1,3.2,3.2C27.3,52.3,26.3,51.3,25.2,50.2z"
   id="path17" />
		<path
   class="st5"
   d="M97.2,72.2c-0.3-1.5-0.5-3-0.8-4.5C96.7,69.2,97,70.7,97.2,72.2z"
   id="path18" />
		<path
   class="st5"
   d="M98,76.3c-0.2-1.2-0.4-2.3-0.6-3.5C97.6,74,97.8,75.1,98,76.3z"
   id="path19" />
		<path
   class="st6"
   d="M31.3,36.3c-0.3,1.2-0.5,2.5-0.8,3.7C30.7,38.8,31,37.6,31.3,36.3z"
   id="path20" />
		<path
   class="st5"
   d="M80.2,29.2c-0.3-1.2-0.6-2.4-0.9-3.7C79.5,26.8,79.9,28,80.2,29.2z"
   id="path21" />
		<path
   class="st8"
   d="M20.1,43.2c0.4,0.7,0.8,1.3,1.2,2C20.9,44.5,20.5,43.8,20.1,43.2z"
   id="path22" />
		<path
   class="st8"
   d="M38.3,61.1c1.1-0.3,1.6,0.4,1.9,1.2C39.6,62,38.9,61.6,38.3,61.1z"
   id="path23" />
		<path
   class="st5"
   d="M79.2,25.1c-0.3-0.9-0.6-1.8-0.9-2.7C78.6,23.2,78.9,24.2,79.2,25.1z"
   id="path24" />
		<path
   class="st6"
   d="M31.7,33c-0.1,0.9-0.3,1.7-0.4,2.6C31.4,34.7,31.6,33.9,31.7,33z"
   id="path25" />
		<path
   class="st8"
   d="M30.3,55.1c0.5,0.4,1.1,0.9,1.6,1.3C31.3,55.9,30.8,55.5,30.3,55.1z"
   id="path26" />
		<path
   class="st6"
   d="M30.3,42.9c-0.1,0-0.2,0-0.4,0c0.1-0.7,0.3-1.5,0.4-2.2C30.4,41.4,30.3,42.1,30.3,42.9z"
   id="path27" />
		<path
   class="st8"
   d="M22.7,41.3c-0.3-0.6-0.6-1.3-1-1.9C22,40,22.3,40.6,22.7,41.3z"
   id="path28" />
		<path
   class="st8"
   d="M27.2,47.3c-0.4-0.4-0.8-0.9-1.2-1.3C26.3,46.4,26.7,46.9,27.2,47.3z"
   id="path29" />
		<path
   class="st8"
   d="M24.3,43.8c-0.3-0.4-0.6-0.9-0.9-1.3C23.7,42.9,24,43.4,24.3,43.8z"
   id="path30" />
		<path
   class="st5"
   d="M90.4,33c-0.1-0.6-0.2-1.3-0.3-1.9C90.1,31.7,90.3,32.4,90.4,33z"
   id="path31" />
		<path
   class="st5"
   d="M91.2,37.8c-0.1-0.6-0.3-1.2-0.4-1.8C91,36.6,91.1,37.2,91.2,37.8z"
   id="path32" />
		<path
   class="st8"
   d="M24.6,27.6c0.4-0.3,0.9-0.6,1.3-1C25.4,27,25,27.3,24.6,27.6z"
   id="path33" />
		<path
   class="st8"
   d="M33.2,57.5c0.4,0.3,0.9,0.6,1.3,1C34.1,58.2,33.7,57.8,33.2,57.5z"
   id="path34" />
		<path
   class="st8"
   d="M21.7,39.4c-0.2-0.7-0.4-1.3-0.6-2C21.3,38,21.5,38.7,21.7,39.4z"
   id="path35" />
		<path
   class="st5"
   d="M91.6,41.6c-0.1-0.7-0.1-1.4-0.2-2.1c0.1,0.7,0.3,1.4,0.4,2.1c0,0-0.1,0-0.1,0L91.6,41.6z"
   id="path36" />
		<path
   class="st8"
   d="M22.3,46.7c0.3,0.4,0.6,0.9,1,1.3C23,47.6,22.6,47.1,22.3,46.7z"
   id="path37" />
		<path
   class="st8"
   d="M23.6,48.3c0.3,0.4,0.6,0.7,0.9,1.1C24.2,49,23.9,48.7,23.6,48.3z"
   id="path38" />
		<path
   class="st5"
   d="M98.4,78.2c-0.1-0.4-0.2-0.9-0.4-1.3C98.2,77.3,98.3,77.8,98.4,78.2z"
   id="path39" />
		<path
   class="st8"
   d="M25.2,25.6c-0.4,0.2-0.9,0.4-1.3,0.7C24.3,26.1,24.8,25.9,25.2,25.6z"
   id="path40" />
		<path
   class="st8"
   d="M23.3,26.6c-0.3,0.2-0.6,0.4-1,0.7C22.6,27.1,23,26.8,23.3,26.6z"
   id="path41" />
		<path
   class="st8"
   d="M19.4,30.4c-0.2,0.3-0.4,0.7-0.6,1C19,31.1,19.2,30.7,19.4,30.4z"
   id="path42" />
		<path
   class="st8"
   d="M40.2,62.4c0.3,0.2,0.7,0.4,1,0.6C40.9,62.8,40.5,62.6,40.2,62.4z"
   id="path43" />
		<path
   class="st8"
   d="M35.8,59.4c0.3,0.2,0.6,0.4,0.9,0.7C36.4,59.9,36.1,59.6,35.8,59.4z"
   id="path44" />
		<path
   class="st8"
   d="M19.3,41.6c0.2,0.5,0.5,0.9,0.7,1.4C19.8,42.6,19.6,42.1,19.3,41.6z"
   id="path45" />
		<path
   class="st8"
   d="M36.8,60.1c0.2,0,0.4,0,0.6,0c0.1,0.2,0.2,0.4,0.3,0.7C37.4,60.5,37.1,60.3,36.8,60.1z"
   id="path46" />
		<path
   class="st8"
   d="M22,30.5c0.2-0.3,0.4-0.6,0.7-1C22.5,29.8,22.2,30.2,22,30.5z"
   id="path47" />
		<path
   class="st8"
   d="M21.3,45.1c0.2,0.3,0.4,0.7,0.6,1C21.7,45.8,21.5,45.5,21.3,45.1z"
   id="path48" />
		<path
   class="st8"
   d="M32.2,56.7c0.2,0.2,0.5,0.4,0.7,0.6C32.7,57,32.4,56.8,32.2,56.7z"
   id="path49" />
		<path
   class="st8"
   d="M35.1,58.9c0.2,0.2,0.5,0.4,0.7,0.6C35.6,59.2,35.3,59.1,35.1,58.9z"
   id="path50" />
		<path
   class="st8"
   d="M22,27.6c-0.2,0.2-0.5,0.4-0.7,0.6C21.5,27.9,21.7,27.8,22,27.6z"
   id="path51" />
		<path
   class="st8"
   d="M29,54c0.2,0.2,0.5,0.4,0.7,0.6C29.5,54.4,29.3,54.2,29,54z"
   id="path52" />
		<path
   class="st5"
   d="M90.8,35.6c-0.1-0.4-0.2-0.8-0.3-1.2C90.6,34.8,90.7,35.2,90.8,35.6z"
   id="path53" />
		<path
   class="st8"
   d="M37.7,60.7c0.2,0.1,0.4,0.3,0.6,0.4C38.1,61,37.9,60.9,37.7,60.7z"
   id="path54" />
		<path
   class="st8"
   d="M25.7,45.7c-0.1-0.2-0.3-0.4-0.4-0.6C25.4,45.3,25.5,45.5,25.7,45.7z"
   id="path55" />
		<path
   class="st8"
   d="M24,28c0.2-0.1,0.4-0.3,0.6-0.4C24.4,27.8,24.2,27.9,24,28z"
   id="path56" />
		<path
   class="st8"
   d="M21.9,46.1c0.1,0.2,0.3,0.4,0.4,0.6C22.2,46.5,22,46.3,21.9,46.1z"
   id="path57" />
		<path
   class="st8"
   d="M23.9,26.3c-0.2,0.1-0.4,0.2-0.6,0.3C23.5,26.5,23.7,26.4,23.9,26.3z"
   id="path58" />
		<path
   class="st8"
   d="M23.4,42.5c-0.1-0.2-0.3-0.4-0.4-0.6C23.1,42.1,23.2,42.3,23.4,42.5z"
   id="path59" />
		<path
   class="st8"
   d="M23,41.9c-0.1-0.2-0.2-0.4-0.4-0.6C22.8,41.5,22.9,41.7,23,41.9z"
   id="path60" />
		<path
   class="st8"
   d="M27.9,48.2c-0.2-0.2-0.3-0.3-0.5-0.5C27.6,47.8,27.8,48,27.9,48.2z"
   id="path61" />
		<path
   class="st8"
   d="M42.2,63.6c0.2,0.1,0.4,0.2,0.6,0.4C42.6,63.9,42.4,63.7,42.2,63.6z"
   id="path62" />
		<path
   class="st8"
   d="M19.7,29.8c-0.1,0.2-0.3,0.4-0.4,0.6C19.5,30.2,19.6,30,19.7,29.8z"
   id="path63" />
		<path
   class="st8"
   d="M34.5,58.5c0.2,0.1,0.4,0.3,0.6,0.4C34.9,58.7,34.7,58.6,34.5,58.5z"
   id="path64" />
		<path
   class="st8"
   d="M41.2,63c0.2,0.1,0.4,0.3,0.6,0.4C41.6,63.3,41.4,63.1,41.2,63z"
   id="path65" />
		<path
   class="st8"
   d="M23,29.2c0.1-0.2,0.3-0.4,0.5-0.5C23.3,28.8,23.1,29,23,29.2z"
   id="path66" />
		<path
   class="st5"
   d="M78.3,22.2c-0.1-0.3-0.2-0.5-0.3-0.8C78,21.7,78.1,21.9,78.3,22.2z"
   id="path67" />
		<path
   class="st8"
   d="M29.7,54.6c0.2,0.1,0.4,0.3,0.6,0.4C30.1,54.9,29.9,54.8,29.7,54.6z"
   id="path68" />
		<path
   class="st8"
   d="M24.7,44.4c-0.1-0.2-0.3-0.4-0.4-0.6C24.4,44,24.5,44.2,24.7,44.4z"
   id="path69" />
		<path
   class="st8"
   d="M28.4,53.4c0.1,0.1,0.2,0.2,0.3,0.4C28.6,53.6,28.5,53.5,28.4,53.4z"
   id="path70" />
		<path
   class="st8"
   d="M24.9,49.9c0.1,0.1,0.2,0.2,0.3,0.3C25.1,50.1,25,50,24.9,49.9z"
   id="path71" />
		<path
   class="st8"
   d="M31.9,56.3c0.1,0.1,0.2,0.2,0.3,0.3C32.1,56.5,32,56.4,31.9,56.3z"
   id="path72" />
		<path
   class="st8"
   d="M24.6,49.5c0.1,0.1,0.2,0.2,0.3,0.3C24.8,49.8,24.7,49.7,24.6,49.5z"
   id="path73" />
		<path
   class="st8"
   d="M32.9,57.2c0.1,0.1,0.2,0.2,0.4,0.3C33.1,57.4,33,57.3,32.9,57.2z"
   id="path74" />
		<path
   class="st8"
   d="M28.4,48.6c-0.1,0-0.1,0.1-0.2,0.1c0-0.1,0-0.2,0-0.2C28.3,48.5,28.4,48.5,28.4,48.6z"
   id="path75" />
		<path
   class="st8"
   d="M28.2,48.5c-0.1-0.1-0.2-0.2-0.3-0.3C28,48.3,28.1,48.4,28.2,48.5z"
   id="path76" />
		<path
   class="st8"
   d="M23.3,48c0.1,0.1,0.2,0.2,0.3,0.3C23.5,48.2,23.4,48.1,23.3,48z"
   id="path77" />
		<path
   class="st8"
   d="M27.5,47.6c-0.1-0.1-0.2-0.2-0.3-0.3C27.3,47.4,27.4,47.5,27.5,47.6z"
   id="path78" />
		<path
   class="st8"
   d="M23.7,28.4c0.1-0.1,0.2-0.2,0.3-0.3C23.9,28.1,23.8,28.2,23.7,28.4z"
   id="path79" />
		<path
   class="st8"
   d="M25.2,45.1c-0.1-0.1-0.2-0.2-0.3-0.4C25,44.9,25.1,45,25.2,45.1z"
   id="path80" />
		<path
   class="st8"
   d="M24.9,44.8c-0.1-0.1-0.2-0.3-0.3-0.4C24.7,44.5,24.8,44.6,24.9,44.8z"
   id="path81" />
		<path
   class="st8"
   d="M25.9,26.7c0.1-0.1,0.3-0.2,0.4-0.3C26.1,26.5,26,26.6,25.9,26.7z"
   id="path82" />
		<path
   class="st5"
   d="M91.4,39.1c0-0.1-0.1-0.1-0.1-0.2c0,0,0.1-0.1,0.1-0.1C91.3,38.8,91.3,39,91.4,39.1z"
   id="path83" />
		<path
   class="st6"
   d="M39,36.8c0-0.1,0-0.2,0-0.3C39.1,36.6,39.1,36.6,39,36.8C39.1,36.7,39,36.8,39,36.8z"
   id="path84" />
		<path
   class="st8"
   d="M41.8,63.4c0.1,0.1,0.3,0.1,0.4,0.2C42.1,63.5,41.9,63.5,41.8,63.4z"
   id="path85" />
		<path
   class="st8"
   d="M21.7,30.9c0.1-0.1,0.2-0.3,0.3-0.4C21.9,30.6,21.8,30.7,21.7,30.9z"
   id="path86" />
		<path
   class="st8"
   d="M42.8,64c0.1,0.1,0.3,0.2,0.4,0.3C43.1,64.1,42.9,64.1,42.8,64z"
   id="path87" />
		<path
   class="st8"
   d="M22.3,27.3c-0.1,0.1-0.2,0.2-0.4,0.3C22.1,27.5,22.2,27.4,22.3,27.3z"
   id="path88" />
		<path
   class="st8"
   d="M20,29.5c-0.1,0.1-0.2,0.2-0.3,0.4C19.8,29.7,19.9,29.6,20,29.5z"
   id="path89" />
		<path
   class="st8"
   d="M20.3,29.1c-0.1,0.1-0.2,0.2-0.3,0.4C20.1,29.4,20.2,29.2,20.3,29.1z"
   id="path90" />
		<path
   class="st8"
   d="M20.6,28.8c-0.1,0.1-0.2,0.2-0.3,0.4C20.4,29,20.5,28.9,20.6,28.8z"
   id="path91" />
		<path
   class="st8"
   d="M21,28.5c-0.1,0.1-0.2,0.2-0.3,0.3C20.7,28.7,20.8,28.6,21,28.5z"
   id="path92" />
		<path
   class="st5"
   d="M104.8,78.2c-0.1,0-0.2,0-0.3,0C104.6,78.2,104.7,78.2,104.8,78.2z"
   id="path93" />
		<path
   class="st8"
   d="M23.4,28.7c0.1-0.1,0.2-0.2,0.3-0.3C23.6,28.5,23.5,28.6,23.4,28.7z"
   id="path94" />
		<path
   class="st8"
   d="M21.3,28.1c-0.1,0.1-0.2,0.2-0.3,0.3C21.1,28.4,21.2,28.3,21.3,28.1z"
   id="path95" />
		<path
   class="st8"
   d="M25.9,46c-0.1-0.1-0.2-0.2-0.3-0.4C25.7,45.8,25.8,45.9,25.9,46z"
   id="path96" />
		<path
   class="st10"
   d="M44.8,29.7c9.8,0,19.6,0,29.5,0.1c0.7,0,1.8-0.4,1.6,1c-0.7-0.2-1.3-0.6-2-0.6c-9.1,0-18.2,0-27.4,0    C46,30.1,45.4,29.9,44.8,29.7z"
   id="path97" />
		<path
   class="st11"
   d="M80.5,29.9c2.4,0,4.9,0,7.3,0c0.5,0,0.9,0.2,1.4,0.3c-2.4,0-4.9,0-7.3,0C81.4,30.1,80.9,30,80.5,29.9z"
   id="path98" />
	</g>
</g>
<g
   id="layer1"
   transform="translate(5.7134503,45.180204)">
	<g
   id="g38"
   transform="matrix(0.56619118,0,0,0.56619118,-6.5545817,-77.975946)">
		<path
   id="path99"
   d="M310,199.6c0,0-0.2,0.2-0.3,0.3c0,0.2,0,0.4-0.1,0.7c0,0,0,0,0,0C309.9,200.1,310.1,199.7,310,199.6z     M305.7,210.2C305.7,210.2,305.7,210.2,305.7,210.2C305.6,210.2,305.6,210.2,305.7,210.2c0,0.1-0.1,0.2-0.1,0.2    C305.7,210.1,305.7,210.2,305.7,210.2z M305.4,210.6c-0.1,0.1-0.2,0.3-0.3,0.4C305,211.1,305.2,210.7,305.4,210.6    C305.3,210.6,305.4,210.6,305.4,210.6L305.4,210.6z M264.3,270.6c-1.4,0-1.8,0.1-2,0.6c-0.1,0.2-0.2,2.2-0.2,5.3    c0.2,0,0.3-0.1,0.5-0.1c1.1-1.7,2.2-3.7,3.4-5.7L264.3,270.6z" />
	</g>
</g>
<g
   id="g104">
	<path
   class="st3"
   d="M110.6,79.2c-0.8,0-1.6-0.3-2.2-0.8c-0.6-0.5-0.9-1.2-0.9-2c0-0.5,0.1-0.9,0.3-1.1c0.2-0.3,0.3-0.6,0.4-0.9   c2.9-4.9,6.3-9.5,10.2-14c3.9-4.5,7.8-8.9,11.8-13.1c-0.8,0-1.4,0-2.1,0c-0.6,0-1.3,0-2,0c-1.5,0-3,0.1-4.7,0.1c-1.7,0-3.3,0-4.7,0   c-0.9,0-1.9,0-2.8,0c-1,0-1.9,0-2.8-0.1c-1.1-0.2-2-0.5-2.5-1.1s-0.8-1.1-0.8-1.9c0-0.7,0.3-1.4,0.9-2c0.6-0.6,1.5-0.9,2.8-1   c3,0.1,5.9,0.2,8.8,0.2c2.8,0,5.7-0.1,8.5-0.2c1.7,0,3.4-0.1,5.1-0.1c1.7,0,3.4,0,5,0c1.8,0.5,2.7,1.4,2.7,2.9   c0,0.8-0.3,1.5-0.9,2.2c-3.5,2.7-6.7,5.8-9.6,9c-2.9,3.3-5.7,6.7-8.5,10.1c-1.3,1.5-2.4,2.9-3.2,3.9c-0.9,1.1-1.7,2.2-2.4,3.2h0.7   c1,0,2.1,0,3.1,0.1c1.1,0,2.1,0.1,3.1,0.1c2.1,0.1,4.3,0.2,6.4,0.2c1.5,0,3-0.1,4.5-0.2c1.5-0.1,3-0.4,4.7-0.8   c1.2,0,2.1,0.3,2.8,0.9c0.6,0.6,1,1.2,1,2c0,0.5-0.1,1-0.4,1.4c-0.3,0.4-0.8,0.9-1.6,1.3c-1,0.3-2,0.6-3,0.8c-1,0.2-2,0.4-3,0.5   c-1.8,0.2-3.6,0.3-5.3,0.2c-1.7-0.1-3.5-0.2-5.2-0.3c-1.1-0.1-2.2-0.2-3.3-0.2c-1.1,0-2.2-0.1-3.3-0.1c-1.1,0-2.2,0-3.3,0.1   c-1.1,0.1-2.3,0.2-3.4,0.5H110.6z"
   id="path100"
   style="fill:#dc2626;fill-opacity:1" />
	<path
   class="st3"
   d="M149.5,41.2c0-1,0.4-1.9,1.1-2.6c0.7-0.7,1.6-1.1,2.6-1.1c1.1,0,2,0.4,2.7,1.1c0.7,0.7,1.1,1.6,1.1,2.6   c0,1-0.4,1.9-1.1,2.6c-0.7,0.7-1.6,1.1-2.7,1.1c-1,0-1.9-0.4-2.6-1.1C149.9,43.1,149.5,42.2,149.5,41.2z M156.6,76.7   c0,1.1-0.4,1.9-1.1,2.5c-0.7,0.5-1.4,0.8-2.2,0.8s-1.5-0.2-2.1-0.7c-0.6-0.5-1-1.2-1.1-2.3L150,51.8c0.2-0.9,0.6-1.6,1.2-2.1   c0.6-0.5,1.2-0.7,2-0.7c0.7,0,1.4,0.2,2,0.6c0.6,0.4,1,1.1,1.2,2L156.6,76.7z"
   id="path101"
   style="fill:#dc2626;fill-opacity:1" />
	<path
   class="st3"
   d="M189,76.8c0,1.1-0.4,1.9-1.1,2.5c-0.7,0.5-1.4,0.8-2.2,0.8c-0.8,0-1.5-0.2-2.2-0.7c-0.6-0.5-1-1.2-1.2-2.3   c0-0.5,0-1,0-1.6s0-1.4,0-2.4c0-1,0-2.3,0-3.8c0-1.6,0-3.6,0-6.1c0-0.6,0-1.3,0.1-2.2c0-0.9,0-1.8-0.1-2.6   c-0.1-0.9-0.4-1.6-0.8-2.2c-0.4-0.6-1-0.9-1.8-0.9c-1.3,0-2.6,0.4-3.9,1.1c-1.3,0.8-2.4,1.9-3.4,3.3c-0.4,0.5-0.6,1-0.8,1.5   c-0.2,0.5-0.3,1.1-0.4,2c0,2.3,0,4.5,0,6.7s0,4.4,0.1,6.7c0,1.1-0.4,1.9-1.1,2.5c-0.7,0.5-1.4,0.8-2.2,0.8c-0.7,0-1.4-0.2-2.1-0.7   s-1-1.2-1.1-2.3V64.7c0-1.9,0-3.9,0-5.9c0-2,0-4,0-6.1c0.2-1,0.6-1.7,1.2-2.1c0.6-0.4,1.3-0.7,2-0.7c0.6,0,1.2,0.2,1.8,0.6   c0.6,0.4,1,0.9,1.2,1.7c1.3-0.9,2.7-1.6,4.1-2.1c1.5-0.5,3-0.8,4.5-0.8c1.7,0,3.3,0.4,4.8,1.2c1.5,0.8,2.8,2,3.7,3.7   c0.4,0.8,0.7,1.6,0.9,2.5c0.1,0.9,0.2,1.8,0.2,2.7s0,1.9-0.1,2.8c-0.1,0.9-0.1,1.8-0.1,2.6V76.8z"
   id="path102"
   style="fill:#dc2626;fill-opacity:1" />
	<path
   class="st3"
   d="M218.3,70.8c0.7-0.3,1.4-0.4,2-0.3c0.6,0,1.1,0.2,1.5,0.5c0.4,0.3,0.8,0.6,1,1c0.2,0.4,0.4,0.9,0.4,1.4   c0,0.5-0.2,1-0.5,1.4c-0.3,0.5-0.8,0.9-1.5,1.3c-1.9,1.1-3.9,2-6,2.8c-2.1,0.8-4.3,1.2-6.5,1.2c-1.3,0-2.6-0.2-3.9-0.6   c-1.3-0.4-2.6-1-3.7-1.8c-1.9-1.4-3.3-3.2-4.3-5.4c-1-2.2-1.6-4.5-1.6-6.9c0-2.3,0.5-4.5,1.4-6.6c0.9-2.1,2.4-3.8,4.3-5.2   c1.6-1.1,3.3-2,5.2-2.7c1.9-0.7,3.8-1,5.8-1c1.1,0,2.1,0.1,3.1,0.3c1,0.2,1.9,0.6,2.7,1.2c0.8,0.6,1.6,1.2,2.2,2   c0.6,0.8,1.1,1.6,1.5,2.6c0.4,0.9,0.5,1.9,0.5,2.8c0,0.6-0.1,1.2-0.2,1.8c-0.1,0.6-0.4,1.1-0.7,1.7c-0.7,1.1-1.6,2-2.7,2.8   c-1.1,0.8-2.4,1.4-3.8,2c-1.4,0.6-2.8,1.1-4.2,1.5s-2.8,0.8-4.1,1.1c-1.4,0.4-2.2,0.6-2.6,0.7c-0.4,0.1-0.6,0.1-0.7,0.1   c0.6,1.3,1.5,2.3,2.7,3c1.1,0.8,2.6,1.1,4.2,0.9c1.4-0.1,2.9-0.5,4.4-1.2C215.6,72.4,217.1,71.6,218.3,70.8z M206.1,57.5   c-1.5,0.8-2.5,1.8-3.2,3c-0.7,1.3-1.1,2.7-1.2,4.2c0.1,0,0.4-0.1,0.7-0.2c0.3-0.1,0.8-0.2,1.5-0.4c0.7-0.2,1.6-0.5,2.9-0.8   c0.4-0.1,1.1-0.3,2-0.6c0.9-0.2,1.8-0.5,2.7-0.9c0.9-0.3,1.7-0.7,2.5-1.2c0.8-0.4,1.3-0.9,1.6-1.5c0.1-1.3-0.2-2.2-0.9-2.7   c-0.7-0.5-1.5-0.7-2.4-0.7c-1,0-2.1,0.2-3.2,0.6C207.8,56.8,206.9,57.2,206.1,57.5z"
   id="path103"
   style="fill:#dc2626;fill-opacity:1" />
	<path
   class="st3"
   d="M238.7,79.4c-1-0.1-2-0.2-2.8-0.4s-1.7-0.5-2.6-1c-0.4,0.2-0.7,0.4-1,0.4c-0.3,0.1-0.7,0.1-1,0.1   c-0.9,0-1.6-0.3-2.2-0.8c-0.6-0.5-0.9-1.2-0.9-1.9c0-0.5,0.2-1.2,0.7-2.1l0.1-34c0.2-0.9,0.6-1.6,1.2-2c0.6-0.5,1.2-0.7,2-0.7   c0.8,0,1.4,0.2,2,0.6c0.6,0.4,1,1.1,1.3,1.9l0,14.6c0.8-0.6,1.6-1,2.3-1.4c0.9-0.5,1.9-0.9,2.9-1.2c1-0.3,2-0.5,3.2-0.6   c1.2-0.1,2.4,0.1,3.5,0.4c1.1,0.4,2.1,0.9,3,1.4c0.9,0.5,1.7,1.2,2.3,2.1c0.6,0.9,1.1,1.8,1.5,2.8c0.4,1,0.6,2.1,0.8,3.2   c0.2,1.1,0.2,2.2,0.2,3.3c0,1.7-0.1,3.2-0.4,4.7c-0.3,1.4-0.8,2.8-1.6,4.1c-0.7,1.2-1.6,2.2-2.7,3c-1.1,0.8-2.3,1.5-3.7,2.1   c-1.3,0.5-2.7,0.9-4.1,1.1C241.3,79.4,240,79.5,238.7,79.4z M235.4,63.2v9.1c0.9,0.5,1.7,0.8,2.5,1c0.8,0.2,1.5,0.3,2.1,0.3   c1.4,0,2.7-0.3,4.1-0.9c1.4-0.6,2.5-1.6,3.3-3c0.5-0.9,0.9-1.8,1-2.7s0.2-1.8,0.2-2.7c0-0.8-0.1-1.7-0.2-2.6   c-0.1-0.9-0.4-1.7-0.7-2.4c-0.3-0.7-0.8-1.3-1.3-1.8c-0.6-0.5-1.2-0.7-2.1-0.8c-1,0-1.9,0.1-2.7,0.4c-0.8,0.3-1.5,0.8-2.2,1.4   c-0.7,0.6-1.4,1.3-2,2.1C236.8,61.4,236.1,62.3,235.4,63.2z"
   id="path104"
   style="fill:#dc2626;fill-opacity:1" />
</g>
<g
   id="g108"
   style="fill:#333333">
	<path
   class="st12"
   d="M262.6,73.7c-0.6-1.3-0.6-2.4,0-3.2s1.5-1.3,2.6-1.3c0.8,0,1.6,0.3,2.5,0.9c0.9,1.2,2,2.3,3.3,3.1   c1.3,0.8,2.6,1.1,4,0.9c0.7-0.1,1.2-0.4,1.8-0.8c0.5-0.4,0.9-0.8,1.1-1.3c0.2-0.5,0.4-1,0.4-1.6c0-0.6-0.2-1.1-0.5-1.6   c-0.4-0.6-0.8-1.1-1.3-1.5c-0.5-0.4-1-0.6-1.5-0.8c-0.5-0.2-1-0.3-1.5-0.4c-0.5-0.1-0.9-0.2-1.3-0.3c-0.7-0.2-1.3-0.4-2-0.6   c-0.7-0.2-1.3-0.5-1.9-0.8c-0.6-0.3-1.2-0.7-1.8-1.2c-0.6-0.5-1.1-1-1.7-1.8c-0.5-0.7-0.9-1.4-1.1-2.2c-0.3-0.8-0.4-1.5-0.4-2.2   c0-0.9,0.2-1.9,0.5-2.9c0.4-1,0.8-1.9,1.4-2.7c0.6-0.8,1.3-1.5,2.1-2.1c0.8-0.6,1.7-1,2.6-1.2c1.9-0.5,3.8-0.6,5.8-0.2   c2,0.4,3.8,1,5.4,1.9c0.6,0.4,1.1,0.9,1.4,1.4c0.3,0.5,0.5,1,0.5,1.4c0,0.5-0.1,1-0.4,1.4c-0.3,0.4-0.7,0.8-1.1,1   c-0.5,0.3-1,0.4-1.6,0.4s-1.2-0.2-1.9-0.5c-0.5-0.3-1.3-0.5-2.2-0.8c-1-0.2-1.9-0.3-2.8-0.3c-0.9,0.1-1.7,0.4-2.3,0.9   c-0.6,0.5-0.9,1.4-0.7,2.7c0.3,0.5,0.6,0.9,1,1.2c0.4,0.3,0.8,0.6,1.3,0.8c0.5,0.2,1,0.4,1.5,0.6c0.5,0.2,1,0.3,1.5,0.4   c1.4,0.4,2.6,0.9,3.8,1.4c1.1,0.5,2.1,1.1,3,1.9c0.8,0.8,1.5,1.7,2,2.7c0.5,1.1,0.7,2.3,0.7,3.8c0,1.2-0.3,2.4-0.8,3.5   c-0.5,1.1-1.2,2.1-2.1,3c-0.9,0.9-1.8,1.6-3,2.1c-1.1,0.5-2.2,0.8-3.3,0.8c-2.5,0-4.9-0.6-7.2-1.7C266,77.2,264.1,75.7,262.6,73.7   L262.6,73.7z"
   id="path105"
   style="fill:#333333" />
	<path
   class="st12"
   d="M297.3,76.4c-0.1,1.1-0.4,1.9-1.1,2.4c-0.6,0.5-1.3,0.8-2.2,0.8c-0.8,0-1.5-0.2-2.1-0.7   c-0.7-0.5-1.1-1.2-1.2-2.2V40.2c0.2-0.9,0.6-1.6,1.2-2c0.6-0.5,1.2-0.7,2-0.7c0.8,0,1.4,0.2,2,0.6c0.6,0.4,1,1.1,1.4,1.9l0,14.3   c2.2-1.5,4.1-2.5,5.9-2.9c1.7-0.4,3.5-0.4,5.4,0.3c1.4,0.4,2.5,1.1,3.5,2c1,0.9,1.8,1.9,2.4,3.1c0.6,1.2,1.1,2.4,1.5,3.7   c0.3,1.3,0.5,2.6,0.6,3.8c0,2.1,0,3.8,0,5.1c0,1.3,0,2.4,0,3.3c0,0.9,0,1.6,0,2.2c0,0.6,0,1.1,0,1.7c-0.1,1.1-0.4,1.9-1,2.4   c-0.6,0.5-1.3,0.8-2.1,0.8c-0.7,0-1.4-0.2-2.1-0.7c-0.7-0.5-1.1-1.2-1.2-2.3c0-2.1,0-4.1,0-6.1c0-2,0-4.1-0.1-6.2   c-0.1-1.4-0.4-2.8-0.9-4.1c-0.5-1.3-1.3-2.4-2.5-3.1c-0.9-0.2-1.7-0.1-2.5,0.1s-1.5,0.7-2.3,1.3c-0.8,0.6-1.5,1.3-2.3,2.2   c-0.8,0.9-1.5,1.8-2.3,2.8V76.4z"
   id="path106"
   style="fill:#333333" />
	<path
   class="st12"
   d="M336.5,49.7c1.9,0,3.5,0.4,4.9,1.2c1.4,0.8,2.7,1.8,3.6,3.1c1,1.3,1.7,2.8,2.3,4.4c0.5,1.7,0.8,3.3,0.8,5.1   c0,0.8,0,1.4-0.1,2.1c-0.1,0.6-0.2,1.3-0.3,2c-0.5,1.8-1.2,3.5-2.2,5.1c-1,1.6-2.1,3-3.3,4.1c-1.3,1.2-2.7,2.1-4.3,2.8   c-1.6,0.7-3.2,1-4.9,1c-1.8,0-3.5-0.4-4.9-1.2c-1.5-0.8-2.7-1.8-3.7-3.1c-1-1.3-1.8-2.7-2.4-4.2c-0.6-1.6-0.8-3.1-0.8-4.7   c0-2.2,0.4-4.4,1.2-6.5c0.8-2.1,1.9-4,3.3-5.6c1.4-1.7,3-3,4.9-4C332.4,50.2,334.4,49.7,336.5,49.7z M328,64   c-0.3,1-0.4,2.2-0.4,3.4c0,1.2,0.2,2.4,0.5,3.5c0.4,1.1,0.9,2,1.8,2.8c0.8,0.8,1.9,1.1,3.3,1.1c1.3,0,2.5-0.4,3.5-1.2   c1-0.8,1.9-1.7,2.7-2.9c0.7-1.1,1.3-2.4,1.7-3.7c0.4-1.3,0.6-2.5,0.6-3.6c0-1-0.1-1.9-0.3-2.9c-0.2-1-0.6-1.8-1-2.6   c-0.5-0.8-1-1.4-1.7-1.8s-1.4-0.7-2.3-0.7c-1.1,0-2.1,0.3-3,0.8c-0.9,0.6-1.8,1.2-2.5,2.1c-0.7,0.8-1.3,1.7-1.8,2.7   C328.6,62.2,328.2,63.1,328,64z"
   id="path107"
   style="fill:#333333" />
	<path
   class="st12"
   d="M354.3,52c0.2-0.9,0.6-1.6,1.2-2.1c0.6-0.5,1.3-0.7,2-0.7c0.7,0,1.3,0.2,1.9,0.6c0.6,0.4,1.1,1,1.3,1.7   c1-0.6,2-1.1,3.2-1.4c1.2-0.3,2.3-0.5,3.5-0.5c1.8,0,3.4,0.4,5,1.1c1.5,0.8,2.9,1.8,4,3c1.1,1.3,2,2.8,2.7,4.5c0.6,1.7,1,3.5,1,5.4   c0,2.1-0.3,4.1-1,5.8c-0.7,1.8-1.7,3.3-3.1,4.6c-1.4,1.3-3.1,2.3-5.1,3c-2,0.7-4.3,1.1-7,1.1c-0.5,0-1,0-1.5,0c-0.5,0-1,0-1.5-0.1   v13.4c0,1.1-0.4,1.9-1.1,2.5c-0.7,0.5-1.4,0.8-2.2,0.8c-0.8,0-1.4-0.2-2.1-0.7c-0.6-0.5-1-1.2-1.2-2.3V52z M360.8,60.1v12.2   c1,0.2,2,0.3,3,0.3c2.8,0,5.1-0.8,7-2.3c1.9-1.5,2.8-3.6,2.8-6.2c0-1-0.1-2-0.4-3.1c-0.3-1-0.7-2-1.2-2.8c-0.5-0.8-1.2-1.5-1.9-2.1   s-1.5-0.8-2.4-0.8c-1.4,0-2.6,0.5-3.6,1.4c-1.1,0.9-2,1.8-2.7,2.8L360.8,60.1z"
   id="path108"
   style="fill:#333333" />
</g>
<path
   class="st13"
   d="M666.8,200.8"
   id="path109" />
</svg>
